# xmcd
#
# Track frame offsets:
#	150
#	14775
#	27515
#	38313
#	47661
#	65029
#	79119
#	88340
#	102255
#	122338
#	140016
#	151659
#
# Disc length: 2121 seconds
#
# Revision: 0
# Processed by: cddbd v1.5.2PL0 Copyright (c) Steve Scherf et al.
# Submitted via: audiograbber 1.83.01
#
DISCID=9808470c
DTITLE=The Pretty Things - The Best Of The Pretty Things
DYEAR=1965
DGENRE=Rock Oldies
TTITLE0=Road Runner
TTITLE1=Judgement Day
TTITLE2=13, Chester Street
TTITLE3=Big City
TTITLE4=Unknown Blues
TTITLE5=Mama Keep Your Big Mouth Shut
TTITLE6=Honey, I Need
TTITLE7=Oh Baby Doll
TTITLE8=She's Fine, She's Mine
TTITLE9=Don't Lie to Me
TTITLE10=The Moon Is Rising
TTITLE11=Pretty Things
EXTD=
EXTT0=
EXTT1=
EXTT2=
EXTT3=
EXTT4=
EXTT5=
EXTT6=
EXTT7=
EXTT8=
EXTT9=
EXTT10=
EXTT11=
PLAYORDER=
